<?xml version="1.0" encoding="UTF-8"?>
<svg xmlns="http://www.w3.org/2000/svg" viewBox="0 0 512 512" role="img" aria-label="MemeFPV bird with spinning propeller">
  <style>
    .bird, .hub { fill: #ebe2d2; }
    .blades { fill: #ebe2d2; transform-origin: 259px 328px; animation: spin 0.6s linear infinite; }
    @keyframes spin { to { transform: rotate(360deg); } }
    @media (prefers-reduced-motion: reduce) { .blades { animation: none; } }
  </style>

  <!-- Bird silhouette (left wing, right wing, body/tail) -->
  <g class="bird">
    <path d="M0 0 C0.44730469 0.95261719 0.89460937 1.90523438 1.35546875 2.88671875 C1.9655978 4.15390985 2.57630585 5.42082228 3.1875 6.6875 C3.47947266 7.31333984 3.77144531 7.93917969 4.07226562 8.58398438 C6.16225759 12.87633346 8.45418513 15.79713095 12 19 C10.5158627 22.48654476 8.53785948 24.64191072 5.8125 27.25 C2.22081489 30.75506891 -1.1472875 34.35124972 -4.39453125 38.17578125 C-6 40 -6 40 -8.00708008 41.79663086 C-10.2568375 44.28395913 -10.78513068 45.83147179 -11.4921875 49.078125 C-11.8325 50.56119141 -11.8325 50.56119141 -12.1796875 52.07421875 C-12.40914062 53.12222656 -12.63859375 54.17023438 -12.875 55.25 C-20.45360499 87.45907122 -20.45360499 87.45907122 -31.6640625 94.49609375 C-35.78378841 96.99188666 -39.9693442 98.76887641 -44.5 100.375 C-45.31621826 100.66826172 -46.13243652 100.96152344 -46.97338867 101.26367188 C-89.97015928 116.40718857 -170.71914058 143.24026444 -217 129 C-216.6907377 125.88240967 -216.4149866 124.3934011 -214.10375977 122.20239258 C-213.28705811 121.66767334 -212.47035645 121.1329541 -211.62890625 120.58203125 C-210.72156738 119.98600098 -209.81422852 119.3899707 -208.87939453 118.77587891 C-204.29965073 115.95130231 -199.64831486 113.28659789 -194.9375 110.6875 C-192.88997766 109.54412721 -190.84310622 108.39958808 -188.796875 107.25390625 C-187.80365234 106.69848145 -186.81042969 106.14305664 -185.78710938 105.57080078 C-182.05867954 103.46947654 -178.36803996 101.30882986 -174.6875 99.125 C-167.63480034 94.94629268 -160.54183393 90.8402796 -153.4375 86.75 C-144.98332945 81.88226193 -136.5447872 76.98945759 -128.125 72.0625 C-118.30870924 66.32230712 -108.44534352 60.66676575 -98.56738281 55.03369141 C-90.65777747 50.52255148 -82.76059145 45.99054706 -74.875 41.4375 C-73.80894531 40.82197266 -72.74289063 40.20644531 -71.64453125 39.57226562 C-68.42942477 37.71529806 -65.21464622 35.85776421 -62 34 C-47.04607426 25.35803257 -32.07832227 16.7416638 -17.07275391 8.18969727 C-15.9594873 7.55475342 -14.8462207 6.91980957 -13.69921875 6.265625 C-12.71783936 5.70649414 -11.73645996 5.14736328 -10.7253418 4.57128906 C-8.90299055 3.52061697 -7.104215 2.42799568 -5.33129883 1.29589844 C-3 0 -3 0 0 0 Z" transform="translate(217,339)"/>
    <path d="M0 0 C0.5554248 0.43892578 1.11084961 0.87785156 1.68310547 1.33007812 C6.17101354 4.91628842 10.4579075 8.71229767 14.6640625 12.625 C16.75839533 14.58730443 16.75839533 14.58730443 19.6875 16.4375 C19.6875 17.0975 19.6875 17.7575 19.6875 18.4375 C20.27233154 18.69708496 20.85716309 18.95666992 21.4597168 19.22412109 C23.84620354 20.52393908 25.42052211 21.92706722 27.33203125 23.8515625 C28.00943359 24.53089844 28.68683594 25.21023438 29.38476562 25.91015625 C30.43180664 26.97556641 30.43180664 26.97556641 31.5 28.0625 C32.52963867 29.09310547 32.52963867 29.09310547 33.58007812 30.14453125 C37.54932972 34.14757969 41.33654473 38.25922031 45.01928711 42.52636719 C47.62202469 45.50810724 50.34692373 48.37143095 53.0625 51.25 C57.8099122 56.31885512 62.30908629 61.51434005 66.65234375 66.9375 C68.55773067 69.27809046 70.53170891 71.5181811 72.5625 73.75 C77.37018226 79.10767353 81.76742439 84.77571524 86.16503906 90.46923828 C87.74697692 92.51439271 89.33827338 94.55205737 90.9296875 96.58984375 C115.10638379 127.69655197 115.10638379 127.69655197 116 138.0625 C115.8453125 139.238125 115.8453125 139.238125 115.6875 140.4375 C111.13863892 140.7026113 108.42202267 140.15222042 104.44921875 137.9453125 C103.4737207 137.41059326 102.49822266 136.87587402 101.49316406 136.32495117 C99.94967285 135.45253784 99.94967285 135.45253784 98.375 134.5625 C97.29831055 133.96606689 96.22162109 133.36963379 95.11230469 132.75512695 C88.50971565 129.07996157 81.95828052 125.32021 75.46777344 121.45068359 C68.73835522 117.43934174 61.93262446 113.56393084 55.125 109.6875 C45.30206246 104.09119447 35.51582696 98.43720903 25.76074219 92.72314453 C18.75064656 88.62370722 11.7063564 84.58670517 4.64797974 80.57116699 C-6.52290502 74.21593207 -17.61029031 67.73690382 -28.65283203 61.16113281 C-36.23238836 56.65316863 -43.85661524 52.23466289 -51.52416992 47.87841797 C-60.25089211 42.91693888 -68.92155595 37.86122801 -77.58203125 32.78515625 C-81.23372896 30.64556136 -84.89629427 28.5277632 -88.57421875 26.43359375 C-89.76772949 25.74837646 -89.76772949 25.74837646 -90.98535156 25.04931641 C-92.45323695 24.20713378 -93.92503901 23.37172689 -95.40136719 22.54443359 C-100.19989774 19.77530677 -100.19989774 19.77530677 -101.3125 16.4375 C-100.16796875 13.8359375 -100.16796875 13.8359375 -98.5 10.8125 C-95.79090233 5.64572903 -94.26851025 1.1735615 -93.3125 -4.5625 C-91.20804896 -4.14727199 -89.10396523 -3.73018264 -87 -3.3125 C-85.9948938 -3.12312866 -85.9948938 -3.12312866 -84.96948242 -2.92993164 C-81.18054226 -2.20110587 -77.49096603 -1.35318321 -73.7890625 -0.26171875 C-62.55117875 2.88484122 -55.18340556 2.00385761 -44.26171875 -1.88671875 C-39.42332529 -3.60769397 -34.62697616 -4.63317002 -29.5625 -5.4375 C-28.84827881 -5.55681885 -28.13405762 -5.6761377 -27.39819336 -5.79907227 C-16.99885448 -7.397178 -8.47288155 -6.8954973 0 0 Z" transform="translate(396.3125,335.5625)"/>
    <path d="M0 0 C1.0828125 0.185625 1.0828125 0.185625 2.1875 0.375 C3.32964456 2.65928912 3.31184387 3.90969666 3.31054783 6.44735146 C3.31253888 7.30476547 3.31452993 8.16217948 3.31658131 9.04557574 C3.31366847 9.99303239 3.31075563 10.94048904 3.30775452 11.91665649 C3.30860894 12.91883567 3.30946337 13.92101485 3.31034368 14.95356309 C3.31199918 18.33315494 3.30647596 21.71269784 3.30102539 25.09228516 C3.30074351 27.50634256 3.30090127 29.92040005 3.3014679 32.3344574 C3.30169608 37.54279687 3.29884796 42.75112515 3.29323006 47.95946121 C3.28511272 55.48989695 3.2824996 63.02032663 3.28124207 70.55076627 C3.27905191 82.76757157 3.27239282 94.9843702 3.26293945 107.20117188 C3.25376439 119.07063768 3.24668401 130.94010168 3.24243164 142.80957031 C3.24216892 143.54085878 3.24190619 144.27214725 3.24163551 145.02559598 C3.2403305 148.69415216 3.23906678 152.36270834 3.23782361 156.03126454 C3.22745214 186.47918114 3.20976063 216.92708964 3.1875 247.375 C2.17357178 247.43486084 1.15964355 247.49472168 0.11499023 247.55639648 C-1.23715311 247.64028217 -2.58928467 247.72435804 -3.94140625 247.80859375 C-4.60708618 247.84738647 -5.27276611 247.8861792 -5.95861816 247.92614746 C-11.37036897 248.2692508 -16.54913881 249.09940893 -21.8125 250.375 C-21.96992676 249.61171387 -22.12735352 248.84842773 -22.28955078 248.06201172 C-26.9333912 227.00214808 -34.42303765 215.85109071 -50.38085938 201.65625 C-56.50886063 195.90724962 -61.82052859 188.62457855 -63.8125 180.375 C-64.05566701 155.57196447 -19.79713165 2.63961755 0 0 Z" transform="translate(261.8125,35.625)"/>
  </g>

  <!-- Hub (the dot in the middle) -->
  <g class="hub">
    <path d="M0 0 C5.06733757 3.64848305 7.66269173 7.15704889 9.125 13.25 C9.63625152 18.77151643 8.96425068 23.47744376 6.125 28.25 C2.13441702 32.56481785 -1.49294034 35.89926789 -7.51171875 36.5234375 C-13.6113559 36.7264984 -18.1957082 36.58596713 -23.18359375 32.84765625 C-28.1861693 28.12235972 -30.16833917 24.0739703 -30.375 17.125 C-30.04807495 10.45237591 -28.47289284 6.54102701 -23.5625 2 C-16.50755413 -3.59986329 -8.04119135 -4.25404962 0 0 Z" transform="translate(269.875,309.75)"/>
  </g>

  <!-- Propeller blades (animated, spin around hub center 259,328) -->
  <g class="blades">
    <ellipse cx="259" cy="328" rx="135" ry="10"/>
    <ellipse cx="259" cy="328" rx="10" ry="135"/>
  </g>
</svg>
